<?xml version="1.0" encoding="utf-8"?>
<!-- Generator: Adobe Illustrator 24.1.2, SVG Export Plug-In . SVG Version: 6.00 Build 0)  -->
<svg version="1.1" id="Слой_1" xmlns="http://www.w3.org/2000/svg" xmlns:xlink="http://www.w3.org/1999/xlink" x="0px" y="0px"
	 viewBox="0 0 81.6 65" style="enable-background:new 0 0 81.6 65;" xml:space="preserve">
<style type="text/css">
	.st0{fill:url(#SVGID_1_);}
	.st1{fill:url(#SVGID_2_);stroke:#FFFFFF;}
</style>
<linearGradient id="SVGID_1_" gradientUnits="userSpaceOnUse" x1="8.2292" y1="59.7776" x2="79.471" y2="3.2259" gradientTransform="matrix(1 0 0 -1 0 66.4331)">
	<stop  offset="0" style="stop-color:#9013FE"/>
	<stop  offset="1" style="stop-color:#6610F2"/>
</linearGradient>
<path class="st0" d="M9,8.5C8.9,4.1,12.3,0,17,0h47.7c4.7,0,8.1,4.1,7.9,8.5c-0.1,4.2,0,9.7,1.4,14.2c1.4,4.5,3.7,7.3,7.6,7.7v4.1
	c-3.8,0.4-6.2,3.2-7.6,7.7c-1.4,4.5-1.6,10-1.4,14.2c0.2,4.4-3.3,8.5-7.9,8.5H17c-4.7,0-8.1-4.1-7.9-8.5c0.1-4.2,0-9.7-1.4-14.2
	c-1.4-4.5-3.7-7.3-7.6-7.7v-4.1c3.8-0.4,6.2-3.2,7.6-7.7C9,18.2,9.2,12.7,9,8.5z"/>
<linearGradient id="SVGID_2_" gradientUnits="userSpaceOnUse" x1="30.139" y1="48.5319" x2="46.0634" y2="21.6002" gradientTransform="matrix(1 0 0 -1 0 66.4331)">
	<stop  offset="0" style="stop-color:#FFFFFF"/>
	<stop  offset="1" style="stop-color:#F1E5FC"/>
</linearGradient>
<path class="st1" d="M42.6,49.8c7.5,0,12.1-3.7,12.1-9.8c0-4.6-3.2-7.9-8-8.5v-0.2c3.5-0.6,6.3-3.9,6.3-7.5c0-5.2-4.1-8.6-10.4-8.6
	H28.3v34.6H42.6z M33.8,19.6h7.3c4,0,6.2,1.8,6.2,5c0,3.4-2.6,5.3-7.4,5.3h-6.2C33.8,29.9,33.8,19.6,33.8,19.6z M33.8,45.4V34h7.3
	c5.2,0,7.9,1.9,7.9,5.7c0,3.7-2.6,5.7-7.6,5.7H33.8z"/>
</svg>
