<svg width="64" height="64" viewBox="0 0 64 64" fill="none" xmlns="http://www.w3.org/2000/svg">
<path d="M50.9867 39.8398L51.84 41.5732C52.2667 42.4265 53.36 43.2265 54.2667 43.3865L55.4133 43.5732C58.9067 44.1598 59.7067 46.7198 57.2267 49.2265L56.16 50.2932C55.44 51.0132 55.0667 52.3998 55.28 53.4132L55.4133 54.0532C56.3733 58.2665 54.1333 59.8932 50.48 57.6798L49.7067 57.1998C48.7733 56.6398 47.2267 56.6398 46.2933 57.1998L45.52 57.6798C41.84 59.8932 39.6267 58.2665 40.5867 54.0532L40.72 53.4132C40.9333 52.4265 40.56 51.0132 39.84 50.2932L38.7733 49.2265C36.2933 46.6932 37.0933 44.1598 40.5867 43.5732L41.7333 43.3865C42.6667 43.2265 43.7333 42.4265 44.16 41.5732L45.0133 39.8398C46.6667 36.5065 49.3333 36.5065 50.9867 39.8398Z" fill="#5364FF"/>
<path d="M43.1733 5.3335H20.8266C11.12 5.3335 5.33331 11.1202 5.33331 20.8268V43.1735C5.33331 52.8802 11.12 58.6668 20.8266 58.6668H34.9066C35.84 58.6668 36.5066 57.7068 36.4 56.7735C36.2933 55.7602 36.3466 54.5602 36.6666 53.1735C36.72 52.9868 36.6666 52.7735 36.5066 52.6135L35.92 52.0268C33.6533 49.7335 32.8266 46.9602 33.6266 44.4268C34.4533 41.9202 36.7466 40.1602 39.92 39.6268L40.72 39.4935L41.44 38.0535C42.9066 35.0668 45.3066 33.3335 48 33.3335C50.6933 33.3335 53.0933 35.0668 54.56 38.0535L54.96 38.8802C55.1466 39.2802 55.52 39.5468 55.9466 39.6268C56.1866 39.6802 56.4266 39.7335 56.6666 39.7868C57.6 40.0268 58.6666 39.2802 58.6666 38.2935V20.8268C58.6666 11.1202 52.88 5.3335 43.1733 5.3335ZM43.36 23.8935L37.2 31.8402C36.4266 32.8268 35.3333 33.4668 34.08 33.6002C32.8533 33.7602 31.6 33.4135 30.64 32.6402L25.76 28.8535C25.5733 28.6935 25.36 28.6935 25.2533 28.7202C25.1466 28.7202 24.96 28.7735 24.8 28.9868L18.4533 37.2268C18.0533 37.7335 17.4666 38.0002 16.8533 38.0002C16.4266 38.0002 16 37.8668 15.6266 37.5735C14.7466 36.9068 14.5866 35.6535 15.2533 34.7735L21.6 26.5335C22.3733 25.5468 23.4666 24.9068 24.72 24.7468C25.9733 24.5868 27.2 24.9335 28.1866 25.7068L33.0666 29.5468C33.2533 29.7068 33.44 29.6802 33.5733 29.6802C33.68 29.6802 33.8666 29.6268 34.0266 29.4135L40.1866 21.4668C40.8533 20.5868 42.1067 20.4268 42.9866 21.1202C43.8933 21.7868 44.0266 23.0402 43.36 23.8935Z" fill="#5364FF"/>
</svg>
