<svg width="64" height="64" viewBox="0 0 64 64" fill="none" xmlns="http://www.w3.org/2000/svg">
<path d="M43.1734 5.3335H20.8267C11.12 5.3335 5.33337 11.1202 5.33337 20.8268V43.1468C5.33337 52.8802 11.12 58.6668 20.8267 58.6668H43.1467C52.8534 58.6668 58.64 52.8802 58.64 43.1735V20.8268C58.6667 11.1202 52.88 5.3335 43.1734 5.3335ZM20.3467 48.4002C20.3467 49.4935 19.44 50.4002 18.3467 50.4002C17.2534 50.4002 16.3467 49.4935 16.3467 48.4002V42.8802C16.3467 41.7868 17.2534 40.8802 18.3467 40.8802C19.44 40.8802 20.3467 41.7868 20.3467 42.8802V48.4002ZM34 48.4002C34 49.4935 33.0934 50.4002 32 50.4002C30.9067 50.4002 30 49.4935 30 48.4002V37.3335C30 36.2402 30.9067 35.3335 32 35.3335C33.0934 35.3335 34 36.2402 34 37.3335V48.4002ZM47.6534 48.4002C47.6534 49.4935 46.7467 50.4002 45.6534 50.4002C44.56 50.4002 43.6534 49.4935 43.6534 48.4002V31.8135C43.6534 30.7202 44.56 29.8135 45.6534 29.8135C46.7467 29.8135 47.6534 30.7202 47.6534 31.8135V48.4002ZM47.6534 23.3868C47.6534 24.4802 46.7467 25.3868 45.6534 25.3868C44.56 25.3868 43.6534 24.4802 43.6534 23.3868V20.8002C36.8534 27.7868 28.3467 32.7202 18.8267 35.0935C18.6667 35.1468 18.5067 35.1468 18.3467 35.1468C17.44 35.1468 16.64 34.5335 16.4 33.6268C16.1334 32.5602 16.7734 31.4668 17.8667 31.2002C26.8534 28.9602 34.8534 24.2402 41.2 17.5735H37.8667C36.7734 17.5735 35.8667 16.6668 35.8667 15.5735C35.8667 14.4802 36.7734 13.5735 37.8667 13.5735H45.68C45.7867 13.5735 45.8667 13.6268 45.9734 13.6268C46.1067 13.6535 46.24 13.6535 46.3734 13.7068C46.5067 13.7602 46.6134 13.8402 46.7467 13.9202C46.8267 13.9735 46.9067 14.0002 46.9867 14.0535C47.0134 14.0802 47.0134 14.1068 47.04 14.1068C47.1467 14.2135 47.2267 14.3202 47.3067 14.4268C47.3867 14.5335 47.4667 14.6135 47.4934 14.7202C47.5467 14.8268 47.5467 14.9335 47.5734 15.0668C47.6 15.2002 47.6534 15.3335 47.6534 15.4935C47.6534 15.5202 47.68 15.5468 47.68 15.5735V23.3868H47.6534Z" fill="#5364FF"/>
</svg>
